<mxfile host="app.diagrams.net" modified="2024-04-23T09:14:22.795Z" agent="Mozilla/5.0 (Windows NT 10.0; Win64; x64) AppleWebKit/537.36 (KHTML, like Gecko) Chrome/124.0.0.0 Safari/537.36" etag="C5YCoBZlEDJXz78gOnn4" version="24.2.7" type="device">
  <diagram name="Page-1" id="lTMDPAAz7YjWO_ci2Ma0">
    <mxGraphModel dx="1193" dy="698" grid="1" gridSize="10" guides="1" tooltips="1" connect="1" arrows="1" fold="1" page="1" pageScale="1" pageWidth="827" pageHeight="1169" math="0" shadow="0">
      <root>
        <mxCell id="0" />
        <mxCell id="1" parent="0" />
        <mxCell id="V49pKKLT4AL-bZRyU0L9-31" value="" style="rounded=0;whiteSpace=wrap;html=1;" vertex="1" parent="1">
          <mxGeometry x="79" width="801" height="640" as="geometry" />
        </mxCell>
        <mxCell id="V49pKKLT4AL-bZRyU0L9-1" value="user/ customer" style="shape=umlActor;verticalLabelPosition=bottom;verticalAlign=top;html=1;outlineConnect=0;" vertex="1" parent="1">
          <mxGeometry x="127" y="90" width="30" height="60" as="geometry" />
        </mxCell>
        <mxCell id="V49pKKLT4AL-bZRyU0L9-3" value="" style="rounded=0;whiteSpace=wrap;html=1;fillColor=#f5f5f5;fontColor=#333333;strokeColor=#666666;" vertex="1" parent="1">
          <mxGeometry x="220" y="30" width="600" height="580" as="geometry" />
        </mxCell>
        <mxCell id="V49pKKLT4AL-bZRyU0L9-20" style="edgeStyle=orthogonalEdgeStyle;rounded=0;orthogonalLoop=1;jettySize=auto;html=1;" edge="1" parent="1" source="V49pKKLT4AL-bZRyU0L9-2" target="V49pKKLT4AL-bZRyU0L9-18">
          <mxGeometry relative="1" as="geometry" />
        </mxCell>
        <mxCell id="V49pKKLT4AL-bZRyU0L9-30" style="edgeStyle=orthogonalEdgeStyle;rounded=0;orthogonalLoop=1;jettySize=auto;html=1;entryX=0;entryY=0.5;entryDx=0;entryDy=0;" edge="1" parent="1" source="V49pKKLT4AL-bZRyU0L9-2" target="V49pKKLT4AL-bZRyU0L9-29">
          <mxGeometry relative="1" as="geometry" />
        </mxCell>
        <mxCell id="V49pKKLT4AL-bZRyU0L9-2" value="Client" style="shape=umlActor;verticalLabelPosition=bottom;verticalAlign=top;html=1;outlineConnect=0;" vertex="1" parent="1">
          <mxGeometry x="124" y="354" width="30" height="60" as="geometry" />
        </mxCell>
        <mxCell id="V49pKKLT4AL-bZRyU0L9-4" value="type question to chatbot" style="ellipse;whiteSpace=wrap;html=1;" vertex="1" parent="1">
          <mxGeometry x="240" y="95" width="120" height="50" as="geometry" />
        </mxCell>
        <mxCell id="V49pKKLT4AL-bZRyU0L9-6" value="&lt;font style=&quot;font-size: 15px;&quot;&gt;&lt;b&gt;Chatbot system&lt;/b&gt;&lt;/font&gt;" style="text;html=1;align=center;verticalAlign=middle;whiteSpace=wrap;rounded=0;" vertex="1" parent="1">
          <mxGeometry x="435" width="170" height="30" as="geometry" />
        </mxCell>
        <mxCell id="V49pKKLT4AL-bZRyU0L9-7" style="edgeStyle=orthogonalEdgeStyle;rounded=0;orthogonalLoop=1;jettySize=auto;html=1;entryX=0;entryY=0.5;entryDx=0;entryDy=0;" edge="1" parent="1" source="V49pKKLT4AL-bZRyU0L9-1" target="V49pKKLT4AL-bZRyU0L9-4">
          <mxGeometry relative="1" as="geometry" />
        </mxCell>
        <mxCell id="V49pKKLT4AL-bZRyU0L9-12" style="edgeStyle=orthogonalEdgeStyle;rounded=0;orthogonalLoop=1;jettySize=auto;html=1;entryX=0;entryY=0.5;entryDx=0;entryDy=0;" edge="1" parent="1" source="V49pKKLT4AL-bZRyU0L9-10" target="V49pKKLT4AL-bZRyU0L9-11">
          <mxGeometry relative="1" as="geometry" />
        </mxCell>
        <mxCell id="V49pKKLT4AL-bZRyU0L9-10" value="AI" style="shape=umlActor;verticalLabelPosition=bottom;verticalAlign=top;html=1;outlineConnect=0;" vertex="1" parent="1">
          <mxGeometry x="127" y="220" width="30" height="60" as="geometry" />
        </mxCell>
        <mxCell id="V49pKKLT4AL-bZRyU0L9-14" style="edgeStyle=orthogonalEdgeStyle;rounded=0;orthogonalLoop=1;jettySize=auto;html=1;dashed=1;dashPattern=8 8;" edge="1" parent="1" source="V49pKKLT4AL-bZRyU0L9-11" target="V49pKKLT4AL-bZRyU0L9-13">
          <mxGeometry relative="1" as="geometry" />
        </mxCell>
        <mxCell id="V49pKKLT4AL-bZRyU0L9-15" value="&lt;font style=&quot;font-size: 13px;&quot;&gt;include&lt;/font&gt;" style="edgeLabel;html=1;align=center;verticalAlign=middle;resizable=0;points=[];" vertex="1" connectable="0" parent="V49pKKLT4AL-bZRyU0L9-14">
          <mxGeometry x="0.2172" y="-2" relative="1" as="geometry">
            <mxPoint x="-9" y="-2" as="offset" />
          </mxGeometry>
        </mxCell>
        <mxCell id="V49pKKLT4AL-bZRyU0L9-11" value="&lt;div&gt;&lt;span style=&quot;background-color: initial;&quot;&gt;analyse&amp;nbsp;&lt;/span&gt;&lt;br&gt;&lt;/div&gt;&lt;div&gt;user question&lt;/div&gt;" style="ellipse;whiteSpace=wrap;html=1;" vertex="1" parent="1">
          <mxGeometry x="240" y="225" width="120" height="50" as="geometry" />
        </mxCell>
        <mxCell id="V49pKKLT4AL-bZRyU0L9-13" value="Process user question" style="ellipse;whiteSpace=wrap;html=1;" vertex="1" parent="1">
          <mxGeometry x="440" y="225" width="120" height="50" as="geometry" />
        </mxCell>
        <mxCell id="V49pKKLT4AL-bZRyU0L9-22" style="edgeStyle=orthogonalEdgeStyle;rounded=0;orthogonalLoop=1;jettySize=auto;html=1;dashed=1;dashPattern=12 12;" edge="1" parent="1" source="V49pKKLT4AL-bZRyU0L9-18" target="V49pKKLT4AL-bZRyU0L9-21">
          <mxGeometry relative="1" as="geometry" />
        </mxCell>
        <mxCell id="V49pKKLT4AL-bZRyU0L9-23" value="&lt;font style=&quot;font-size: 13px;&quot;&gt;include&lt;/font&gt;" style="edgeLabel;html=1;align=center;verticalAlign=middle;resizable=0;points=[];" vertex="1" connectable="0" parent="V49pKKLT4AL-bZRyU0L9-22">
          <mxGeometry x="-0.4662" y="2" relative="1" as="geometry">
            <mxPoint x="16" y="3" as="offset" />
          </mxGeometry>
        </mxCell>
        <mxCell id="V49pKKLT4AL-bZRyU0L9-18" value="add new response, patterns and tags" style="ellipse;whiteSpace=wrap;html=1;" vertex="1" parent="1">
          <mxGeometry x="240" y="359" width="120" height="50" as="geometry" />
        </mxCell>
        <mxCell id="V49pKKLT4AL-bZRyU0L9-25" style="edgeStyle=orthogonalEdgeStyle;rounded=0;orthogonalLoop=1;jettySize=auto;html=1;dashed=1;dashPattern=12 12;" edge="1" parent="1" source="V49pKKLT4AL-bZRyU0L9-21" target="V49pKKLT4AL-bZRyU0L9-24">
          <mxGeometry relative="1" as="geometry" />
        </mxCell>
        <mxCell id="V49pKKLT4AL-bZRyU0L9-26" value="&lt;font style=&quot;font-size: 13px;&quot;&gt;extend&lt;/font&gt;" style="edgeLabel;html=1;align=center;verticalAlign=middle;resizable=0;points=[];" vertex="1" connectable="0" parent="V49pKKLT4AL-bZRyU0L9-25">
          <mxGeometry x="-0.3314" y="2" relative="1" as="geometry">
            <mxPoint x="7" y="1" as="offset" />
          </mxGeometry>
        </mxCell>
        <mxCell id="V49pKKLT4AL-bZRyU0L9-21" value="Run the training program&amp;nbsp;" style="ellipse;whiteSpace=wrap;html=1;" vertex="1" parent="1">
          <mxGeometry x="450" y="360" width="120" height="50" as="geometry" />
        </mxCell>
        <mxCell id="V49pKKLT4AL-bZRyU0L9-24" value="Start server chatbot is ran on" style="ellipse;whiteSpace=wrap;html=1;" vertex="1" parent="1">
          <mxGeometry x="640" y="359" width="120" height="50" as="geometry" />
        </mxCell>
        <mxCell id="V49pKKLT4AL-bZRyU0L9-29" value="Start server chatbot is ran on" style="ellipse;whiteSpace=wrap;html=1;" vertex="1" parent="1">
          <mxGeometry x="240" y="450" width="120" height="50" as="geometry" />
        </mxCell>
      </root>
    </mxGraphModel>
  </diagram>
</mxfile>
